<svg width="24" height="24" viewBox="0 0 24 24" fill="none" xmlns="http://www.w3.org/2000/svg">
<g clip-path="url(#clip0_2021_271)">
<g clip-path="url(#clip1_2021_271)">
<path d="M12.1746 21.6537V7.69003M10.5496 6.85234C10.7224 6.89113 10.9046 6.84358 11.0291 6.71912C11.1535 6.59466 11.201 6.41243 11.1623 6.23963C11.0071 5.60585 10.4356 3.4836 9.84873 2.89674C9.11757 2.16558 7.92757 2.16253 7.20002 2.89007C6.47253 3.61757 6.47547 4.80757 7.20669 5.53878C7.80316 6.13525 9.91581 6.6972 10.5496 6.85234ZM12.3242 6.23958C12.2854 6.41245 12.3329 6.59461 12.4574 6.71907C12.5818 6.84353 12.7641 6.89101 12.9369 6.85229C13.5706 6.69713 15.6929 6.1256 16.2797 5.53873C17.0109 4.80757 17.014 3.61757 16.2864 2.89003C15.5589 2.16253 14.3689 2.16548 13.6377 2.89669C13.0412 3.49316 12.4793 5.60581 12.3242 6.23958ZM3.09821 12.5773H20.9018C21.2874 12.5773 21.6 12.2647 21.6 11.8791V8.38821C21.6 8.00261 21.2874 7.69003 20.9018 7.69003H3.09821C2.71261 7.69003 2.40002 8.00261 2.40002 8.38821V11.8791C2.40002 12.2647 2.71261 12.5773 3.09821 12.5773ZM19.8546 12.5773V20.9555C19.8546 21.3411 19.542 21.6537 19.1564 21.6537H4.84366C4.45807 21.6537 4.14548 21.3411 4.14548 20.9555V12.5773H19.8546Z" stroke="url(#paint0_linear_2021_271)" stroke-width="1.5" stroke-linecap="round" stroke-linejoin="round"/>
</g>
</g>
<defs>
<linearGradient id="paint0_linear_2021_271" x1="8.80002" y1="6.3687" x2="16.057" y2="17.5945" gradientUnits="userSpaceOnUse">
<stop stop-color="#FF6600"/>
<stop offset="1" stop-color="#D128A1"/>
</linearGradient>
<clipPath id="clip0_2021_271">
<rect width="24" height="24" fill="white"/>
</clipPath>
<clipPath id="clip1_2021_271">
<rect width="24" height="24" fill="white"/>
</clipPath>
</defs>
</svg>
